<?xml version="1.0" standalone="no"?>
<!DOCTYPE svg PUBLIC "-//W3C//DTD SVG 1.1//EN" "http://www.w3.org/Graphics/SVG/1.1/DTD/svg11.dtd" >
<svg xmlns="http://www.w3.org/2000/svg">
<metadata>
This is a custom SVG webfont generated by Font Squirrel.
Copyright   : HTF Knockout Copr 19907 The Hoefler Type Foundry Inc httpwwwtypographycom
</metadata>
<defs>
<font id="webfontR7MP6wAz" horiz-adv-x="612" >
<font-face units-per-em="2048" ascent="1638" descent="-410" />
<missing-glyph horiz-adv-x="258" />
<glyph unicode=" "  horiz-adv-x="258" />
<glyph unicode="&#x09;" horiz-adv-x="258" />
<glyph unicode="&#xa0;" horiz-adv-x="258" />
<glyph unicode="!" horiz-adv-x="342" d="M281 772l-74 -410h-70l-74 410v592h218v-592zM262 0h-182v236h182v-236z" />
<glyph unicode="&#x22;" horiz-adv-x="450" d="M457 1364l-129 -414h-109l90 414h148zM236 1364l-101 -414h-104l61 414h144z" />
<glyph unicode="#" horiz-adv-x="991" d="M983 877h-225l-60 -390h234v-106h-252l-55 -381h-123l57 381h-209l-57 -381h-121l57 381h-209v106h226l59 390h-233v106h250l59 381h121l-58 -381h207l60 381h120l-57 -381h209v-106zM635 877h-207l-61 -390h208z" />
<glyph unicode="$" horiz-adv-x="708" d="M281 1378v138h157v-134q100 -23 159.5 -106.5t59.5 -206.5v-119h-215v137q0 82 -67 82q-33 0 -55.5 -20.5t-22.5 -63.5q0 -29 3 -52t11 -46.5t14.5 -39t24.5 -41.5l28 -38l36 -47l39 -51q70 -90 106.5 -142.5t73.5 -140.5t37 -170q0 -129 -62.5 -219t-169.5 -114v-138 h-157v136q-113 23 -173.5 103.5t-60.5 209.5v119h213v-129q0 -96 84 -97q82 0 82 95q0 80 -30.5 146.5t-121.5 164.5q-223 256 -223 448q0 123 59.5 215t170.5 121z" />
<glyph unicode="%" horiz-adv-x="1034" d="M987 166q0 -88 -53 -141.5t-135 -53.5t-135.5 53.5t-53.5 141.5v311q0 88 53.5 140.5t135.5 52.5t135 -52.5t53 -140.5v-311zM856 143v355q0 27 -16.5 44t-41 17t-40 -17.5t-15.5 -43.5v-355q0 -27 15.5 -44t40 -17t41 17t16.5 44zM932 1343l-750 -1384l-80 59l752 1385z M424 885q0 -88 -52.5 -140.5t-135.5 -52.5q-82 0 -134.5 52.5t-52.5 140.5v311q0 88 52.5 140.5t134.5 52.5q84 0 136 -52.5t52 -140.5v-311zM293 862v357q0 27 -16.5 44t-41 17t-41 -17.5t-16.5 -43.5v-357q0 -27 16.5 -43t41 -16t41 16t16.5 43z" />
<glyph unicode="&#x26;" horiz-adv-x="983" d="M958 211q0 -238 -174 -238q-94 0 -184 95q-104 -94 -244 -95q-131 0 -218 102.5t-87 250.5q0 258 217 417q-76 168 -75 291q0 170 83.5 263.5t219.5 93.5q119 0 184 -82t65 -213q0 -113 -52 -206t-167 -196q78 -211 107 -268q47 94 47 272h184q-4 -256 -127 -454 q29 -49 66 -49q53 0 53 71v45h102v-100zM549 1079q0 88 -60 88q-72 0 -71 -112q0 -78 35 -183q45 43 70.5 101.5t25.5 105.5zM467 229q-51 90 -123 295q-57 -61 -57 -178q0 -143 112 -143q41 -1 68 26z" />
<glyph unicode="'" horiz-adv-x="278" d="M305 1364l-147 -414h-111l68 414h190z" />
<glyph unicode="(" horiz-adv-x="540" d="M541 -242l-62 -63q-344 309 -344 928q0 621 344 927l62 -61q-111 -154 -159 -352.5t-48 -514t48 -513t159 -351.5z" />
<glyph unicode=")" horiz-adv-x="540" d="M410 623q0 -618 -344 -928l-62 63q111 154 159 351.5t48 513t-48 514t-159 352.5l62 61q344 -306 344 -927z" />
<glyph unicode="*" horiz-adv-x="528" d="M487 1034l-28 -51q-8 -14 -33 -4q-76 47 -129 96q18 -88 18 -162q0 -25 -18 -24h-61q-18 0 -19 24q0 80 19 162q-70 -63 -132 -96q-20 -14 -30 2l-31 53q-8 14 12 29q76 41 148 63q-82 27 -148 66q-23 14 -12 29l29 53q10 16 32 2q66 -39 129 -94q-18 76 -18 159 q0 27 18 27h62q18 0 18 -27q0 -80 -18 -159q74 63 131 96q23 12 31 -4l30 -53q10 -18 -12 -27q-72 -41 -147 -66q78 -25 147 -63q22 -15 12 -31z" />
<glyph unicode="+" horiz-adv-x="610" d="M561 616h-174v-180h-164v180h-176v166h176v183h164v-183h174v-166z" />
<glyph unicode="," horiz-adv-x="288" d="M242 25q0 -88 -53.5 -146.5t-141.5 -58.5v57q92 0 92 123h-92v266h195v-241z" />
<glyph unicode="-" horiz-adv-x="430" d="M397 541h-364v172h364v-172z" />
<glyph unicode="." horiz-adv-x="288" d="M242 0h-195v264h195v-264z" />
<glyph unicode="/" horiz-adv-x="477" d="M479 1493l-356 -1624h-129l354 1624h131z" />
<glyph unicode="0" horiz-adv-x="735" d="M676 287q0 -139 -85 -226.5t-222 -87.5q-139 0 -223.5 86t-84.5 228v788q0 141 84 227.5t223.5 86.5t223.5 -86t84 -228v-788zM434 272v820q0 27 -17.5 44t-48 17t-49 -17.5t-18.5 -43.5v-820q0 -27 18.5 -44t49 -17t48 17t17.5 44z" />
<glyph unicode="1" horiz-adv-x="471" d="M356 0h-241v1255q104 0 104 109h137v-1364z" />
<glyph unicode="2" horiz-adv-x="681" d="M639 1063q0 -135 -43 -244.5t-156 -261.5q-78 -131 -105.5 -200.5t-27.5 -127.5h324v-229h-596v59q0 147 47 274.5t184 348.5q84 131 116 215t32 180q0 82 -70 82t-70 -82v-157h-219v178q0 119 75 206t208 87q156 0 228.5 -90.5t72.5 -237.5z" />
<glyph unicode="3" horiz-adv-x="681" d="M635 272q0 -133 -86 -216t-225 -83q-131 0 -206 87t-75 206v148h221v-129q0 -76 65.5 -76t65.5 67v261q0 53 -49 53h-90v194h90q49 0 49 52v251q0 68 -65.5 68t-65.5 -76v-131h-221v150q0 119 75 206t206 87q139 0 225 -83t86 -216v-199q0 -76 -36 -129t-99 -72 q135 -51 135 -200v-220z" />
<glyph unicode="4" horiz-adv-x="688" d="M662 272h-82v-272h-228v272h-329v181l352 911h205v-889h82v-203zM352 475v344l-123 -344h123z" />
<glyph unicode="5" horiz-adv-x="679" d="M639 1364q-14 -229 -135 -229h-209l-16 -318q61 80 174 80q82 0 134 -59.5t52 -153.5v-412q0 -133 -86 -216t-225 -83q-131 0 -206 87t-75 206v140h221v-121q0 -76 65.5 -76t65.5 67v363q0 27 -17 46.5t-40 19.5t-41 -17.5t-18 -38.5l-220 23l33 692h543z" />
<glyph unicode="6" horiz-adv-x="712" d="M664 291q0 -141 -82 -229.5t-220 -88.5q-139 0 -221 88.5t-82 229.5v782q0 139 84 228.5t222 89.5q133 0 209.5 -88.5t76.5 -204.5v-148h-215v129q0 76 -67 76q-70 0 -70 -65v-340q59 78 162 77q94 0 148.5 -58t54.5 -153v-325zM426 266v316q0 25 -17.5 41t-46.5 16 q-63 0 -63 -57v-316q0 -57 63 -57q29 0 46.5 16t17.5 41z" />
<glyph unicode="7" horiz-adv-x="663" d="M641 1260q-238 -602 -254 -1260h-270q14 297 95 605t187 517h-354v242h596v-104z" />
<glyph unicode="8" horiz-adv-x="731" d="M674 272q0 -133 -85 -216t-222 -83q-139 0 -224.5 83t-85.5 216v217q0 143 103 199q-102 51 -103 197v207q0 133 85 216t225 83q137 0 222 -83t85 -216v-207q0 -145 -103 -197q102 -55 103 -199v-217zM434 823v264q0 31 -19.5 49.5t-47.5 18.5q-31 0 -50.5 -18.5 t-19.5 -49.5v-264q0 -29 19.5 -48t50.5 -19q29 0 48 19t19 48zM434 276v275q0 31 -19.5 49t-47.5 18q-31 0 -50.5 -18t-19.5 -49v-275q0 -31 19.5 -49t50.5 -18q29 0 48 18t19 49z" />
<glyph unicode="9" horiz-adv-x="722" d="M664 291q0 -139 -87.5 -228.5t-226.5 -89.5q-131 0 -211 88.5t-80 204.5v129h213v-108q0 -78 74 -78q80 0 80 70v319q-63 -78 -164 -78q-94 0 -148.5 59.5t-54.5 153.5v340q0 139 83 227.5t220.5 88.5t219.5 -88.5t82 -227.5v-782zM426 760v336q0 25 -17.5 42t-46.5 17 q-31 0 -48 -17.5t-17 -41.5v-336q0 -25 17.5 -41.5t47.5 -16.5q29 0 46.5 16.5t17.5 41.5z" />
<glyph unicode=":" horiz-adv-x="288" d="M242 627h-195v266h195v-266zM242 0h-195v264h195v-264z" />
<glyph unicode=";" horiz-adv-x="288" d="M242 627h-195v266h195v-266zM242 25q0 -88 -53.5 -146.5t-141.5 -58.5v57q92 0 92 123h-92v266h195v-241z" />
<glyph unicode="&#x3c;" horiz-adv-x="866" d="M721 256l-617 403v48l617 401v-199l-342 -227l342 -227v-199z" />
<glyph unicode="=" horiz-adv-x="589" d="M551 774h-512v166h512v-166zM551 461h-512v166h512v-166z" />
<glyph unicode="&#x3e;" horiz-adv-x="866" d="M762 657l-617 -401v199l342 227l-342 229v199l617 -403v-50z" />
<glyph unicode="?" horiz-adv-x="636" d="M606 1071q0 -217 -166 -426q-88 -106 -88 -272h-155q0 119 23.5 210t90.5 232q68 135 68 221q0 119 -69.5 119t-69.5 -86v-141h-211v164q0 129 73.5 214t208.5 85q152 0 223.5 -88.5t71.5 -231.5zM365 0h-183v236h183v-236z" />
<glyph unicode="@" horiz-adv-x="1087" d="M1049 684q0 -166 -79 -283.5t-216 -117.5q-158 0 -152 151q-25 -63 -74 -99t-102 -36q-66 0 -106.5 51t-40.5 139q0 137 79.5 264.5t194.5 127.5q45 0 74.5 -27t34.5 -72l26 86h143l-102 -358q-41 -143 57 -143q72 0 122 89t50 232q0 197 -111.5 317.5t-285.5 120.5 q-184 0 -307 -155.5t-123 -384.5q0 -231 122 -379t308 -148q172 0 291 115l49 -63q-135 -135 -340 -136q-223 0 -372.5 169t-149.5 442q0 268 151.5 447t370.5 179q98 0 180 -31.5t137.5 -85t95.5 -123t57.5 -142t17.5 -146.5zM639 707q-4 76 -57 75q-68 0 -119 -101 t-51 -185q0 -94 63 -95q39 0 69.5 37t47.5 97z" />
<glyph unicode="A" horiz-adv-x="702" d="M698 0h-264l-18 219h-156l-22 -219h-238l199 1364h303zM393 432l-45 531l-59 -531h104z" />
<glyph unicode="B" horiz-adv-x="731" d="M684 254q0 -127 -72.5 -190.5t-179.5 -63.5h-373v1364h373q106 0 179 -63.5t73 -190.5v-227q0 -150 -125 -189q125 -49 125 -188v-252zM436 844v237q0 61 -47 62h-65v-361h65q47 1 47 62zM436 281v245q0 61 -47 62h-65v-369h65q47 1 47 62z" />
<glyph unicode="C" horiz-adv-x="729" d="M692 289q0 -141 -82 -228.5t-221 -87.5q-145 0 -243.5 92.5t-98.5 235.5v762q0 143 98.5 235.5t243.5 92.5q139 0 221 -87t82 -229v-207h-229v211q0 72 -74 72t-74 -72v-794q0 -72 74 -72t74 72v213h229v-209z" />
<glyph unicode="D" horiz-adv-x="761" d="M713 301q0 -147 -87 -224t-227 -77h-340v1364h340q137 0 225.5 -84t88.5 -233v-746zM451 313v736q0 88 -74 88h-53v-910h53q74 0 74 86z" />
<glyph unicode="E" horiz-adv-x="649" d="M614 0h-555v1364h555v-231h-292v-326h192v-213h-192v-354h292v-240z" />
<glyph unicode="F" horiz-adv-x="614" d="M598 1141h-276v-340h196v-223h-196v-578h-263v1364h539v-223z" />
<glyph unicode="G" horiz-adv-x="755" d="M711 0h-152l-27 92q-27 -55 -80 -87t-112 -32q-131 0 -211 86t-80 222v802q0 125 93.5 215.5t236.5 90.5q141 0 231 -90.5t90 -215.5v-225h-247v229q0 63 -70 64q-68 0 -68 -64v-817q0 -29 18.5 -48t51.5 -19t52.5 18.5t19.5 48.5v224h-70v184h324v-678z" />
<glyph unicode="H" horiz-adv-x="794" d="M735 0h-262v543h-149v-543h-265v1364h265v-580h149v580h262v-1364z" />
<glyph unicode="I" horiz-adv-x="382" d="M324 0h-265v1364h265v-1364z" />
<glyph unicode="J" horiz-adv-x="704" d="M651 283q0 -137 -89 -223.5t-228 -86.5t-227.5 86t-88.5 224v260h248v-271q0 -27 17.5 -43t44 -16t44 16.5t17.5 42.5v1092h262v-1081z" />
<glyph unicode="K" horiz-adv-x="751" d="M743 0h-264l-100 530l-55 -186v-344h-265v1364h265v-594l149 594h256l-166 -573z" />
<glyph unicode="L" d="M598 0h-539v1364h263v-1131h276v-233z" />
<glyph unicode="M" horiz-adv-x="1032" d="M973 0h-252v979l-43 -324l-94 -655h-168l-86 655l-39 324v-979h-232v1364h347l83 -535l31 -276l31 276l82 535h340v-1364z" />
<glyph unicode="N" horiz-adv-x="798" d="M741 0h-217l-174 559l-61 191v-750h-232v1364h242l158 -559l55 -193v752h229v-1364z" />
<glyph unicode="O" horiz-adv-x="759" d="M711 289q0 -137 -95.5 -226.5t-234.5 -89.5q-141 0 -236.5 89.5t-95.5 226.5v786q0 137 95.5 225.5t236.5 88.5t235.5 -88.5t94.5 -225.5v-786zM442 272v820q0 27 -17 43t-44 16t-45.5 -16.5t-18.5 -42.5v-820q0 -27 18.5 -43t45.5 -16t44 16t17 43z" />
<glyph unicode="P" horiz-adv-x="718" d="M684 786q0 -135 -73.5 -203.5t-184.5 -68.5h-102v-514h-265v1364h367q111 0 184.5 -68.5t73.5 -203.5v-306zM436 776v305q0 61 -47 62h-65v-426h65q47 0 47 59z" />
<glyph unicode="Q" horiz-adv-x="763" d="M778 0q-41 -27 -104 -27q-80 0 -131 60q-74 -59 -181 -60q-131 0 -222 89.5t-91 226.5v784q0 137 95.5 226.5t236.5 89.5q139 0 234.5 -89.5t95.5 -226.5v-768q0 -63 -19 -106q20 -23 86 -23v-176zM442 367v725q0 27 -17 43t-44 16t-45.5 -16.5t-18.5 -42.5v-820 q0 -27 18.5 -43t45.5 -16q25 0 37 10l-49 47z" />
<glyph unicode="R" horiz-adv-x="741" d="M725 0h-221q-29 0 -46.5 68.5t-17.5 142.5v272q0 29 -14 50.5t-41 21.5h-61v-555h-265v1364h365q106 0 184 -67.5t78 -196.5v-273q0 -104 -108 -168q113 -61 112 -167v-265q0 -98 35 -221v-6zM434 819v262q0 61 -45 62h-65v-385h65q45 0 45 61z" />
<glyph unicode="S" horiz-adv-x="708" d="M676 317q0 -158 -91 -251t-231 -93q-152 0 -237.5 85t-85.5 237v119h227v-127q0 -92 84 -92q80 0 80 90q0 76 -37 140t-121 169q-227 254 -227 448q0 147 86 247t244 100q133 0 214 -88.5t81 -231.5v-119h-228v135q0 37 -18.5 57.5t-49 20.5t-53 -21.5t-22.5 -58.5 q0 -39 6 -68.5t25.5 -64.5t29.5 -51t47 -63l52 -66q72 -86 111.5 -141.5t76.5 -142.5t37 -169z" />
<glyph unicode="T" horiz-adv-x="663" d="M651 1124h-188v-1124h-262v1124h-189v240h639v-240z" />
<glyph unicode="U" horiz-adv-x="753" d="M698 279q0 -131 -89 -218.5t-228 -87.5q-137 0 -230.5 88.5t-93.5 217.5v1085h265v-1092q0 -27 17 -43t42 -16q29 0 46 16.5t17 42.5v1092h254v-1085z" />
<glyph unicode="V" horiz-adv-x="712" d="M715 1364l-234 -1364h-252l-229 1364h266l99 -860l100 860h250z" />
<glyph unicode="W" horiz-adv-x="1030" d="M1038 1364l-215 -1364h-223l-88 709l-96 -709h-217l-201 1364h256l86 -829l94 829h189l86 -829l94 829h235z" />
<glyph unicode="X" horiz-adv-x="727" d="M715 0h-269l-92 426l-108 -426h-250l209 678l-193 686h267l88 -451l106 451h248l-205 -651z" />
<glyph unicode="Y" horiz-adv-x="724" d="M731 1364l-244 -809v-555h-262v555l-227 809h264l111 -510l100 510h258z" />
<glyph unicode="Z" horiz-adv-x="647" d="M627 1292l-314 -1054h299v-238h-602v72l318 1061h-297v231h596v-72z" />
<glyph unicode="[" horiz-adv-x="507" d="M510 -272h-350v1792h350v-140h-199v-1515h199v-137z" />
<glyph unicode="\" horiz-adv-x="487" d="M492 -131h-130l-354 1624h129z" />
<glyph unicode="]" horiz-adv-x="507" d="M360 -272h-352v137h199v1515h-199v140h352v-1792z" />
<glyph unicode="^" horiz-adv-x="497" d="M475 1102q-39 -16 -80 -17q-123 0 -151 156q-33 -156 -154 -156q-31 0 -70 17v59q45 0 88.5 52.5t65.5 150.5h148q23 -98 65.5 -150.5t87.5 -52.5v-59z" />
<glyph unicode="_" d="M612 -172h-612v172h612v-172z" />
<glyph unicode="`" horiz-adv-x="321" d="M270 1108h-110l-148 281h191z" />
<glyph unicode="a" horiz-adv-x="595" d="M573 -16h-43q-109 0 -153 110q-49 -111 -168 -110q-80 0 -131 65.5t-51 177.5v58q0 125 71.5 201.5t227.5 142.5v159q0 51 -41 52q-16 0 -27.5 -14.5t-11.5 -37.5v-104h-191v78q0 119 62.5 190.5t181.5 71.5q113 0 174.5 -75t61.5 -195v-559q0 -45 38 -52v-159zM326 213 v260q-94 -55 -95 -149v-105q0 -63 50 -63q45 0 45 57z" />
<glyph unicode="b" horiz-adv-x="624" d="M575 207q0 -98 -46 -160.5t-130 -62.5q-102 0 -153 94l-17 -78h-172v1364h215v-438q53 98 144 98q68 0 113.5 -63.5t45.5 -151.5v-602zM362 229v547q0 25 -12 41.5t-31 16.5q-20 0 -33.5 -16.5t-13.5 -41.5v-547q0 -25 13.5 -41t33.5 -16q18 0 30.5 16t12.5 41z" />
<glyph unicode="c" horiz-adv-x="579" d="M545 264q0 -129 -64.5 -204.5t-173.5 -75.5q-111 0 -183.5 76.5t-72.5 203.5v477q0 127 73 205t183 78q109 0 173.5 -77t64.5 -206v-114h-178v145q0 68 -52 68q-55 0 -55 -68v-539q0 -68 55 -67q51 0 52 67v146h178v-115z" />
<glyph unicode="d" horiz-adv-x="624" d="M567 0h-176l-10 78q-51 -94 -154 -94q-84 0 -130 62.5t-46 160.5v602q0 86 49.5 150.5t116.5 64.5q72 0 135 -76v416h215v-1364zM352 229v547q0 25 -12 41.5t-32.5 16.5t-33 -16.5t-12.5 -41.5v-547q0 -25 12.5 -41t33 -16t32.5 16t12 41z" />
<glyph unicode="e" horiz-adv-x="602" d="M557 258q0 -121 -70.5 -197.5t-179.5 -76.5q-111 0 -183.5 76.5t-72.5 197.5v490q0 121 73 198.5t183 77.5q109 0 179.5 -78t70.5 -198v-277h-295v-244q0 -61 49 -61q51 0 51 61v146h195v-115zM356 582v198q0 25 -13 42.5t-33.5 17.5t-34 -17.5t-13.5 -42.5v-198h94z" />
<glyph unicode="f" horiz-adv-x="452" d="M438 813h-106v-813h-215v813h-90v186h90v72q0 293 268 293h49v-176h-22q-47 0 -65.5 -21.5t-18.5 -68.5v-99h110v-186z" />
<glyph unicode="g" horiz-adv-x="618" d="M643 1030q0 -61 -24.5 -95t-65.5 -34q-20 0 -53 17q63 -70 63 -164v-123q0 -117 -69.5 -189.5t-184.5 -72.5q-33 0 -43 4q-53 0 -53 -62q0 -59 109 -59q137 0 205.5 -64.5t68.5 -181.5v-86q0 -127 -72.5 -196.5t-208.5 -69.5q-125 0 -201.5 62.5t-76.5 170.5v82 q0 43 23.5 84t58.5 64q-82 37 -82 137q0 57 38 102t93 52q-53 18 -84 84.5t-31 144.5v123q0 113 74 188.5t182 75.5q20 0 50 -5t34 -5q53 0 69.5 22.5t16.5 69.5h158q6 -53 6 -76zM358 588v200q0 25 -14 41.5t-35 16.5q-23 0 -37 -16.5t-14 -41.5v-200q0 -25 14.5 -40.5 t37 -15.5t35.5 15.5t13 40.5zM403 -96v100q0 74 -84 74q-80 0 -79 -74v-100q0 -72 79 -72q39 0 61.5 19.5t22.5 52.5z" />
<glyph unicode="h" horiz-adv-x="634" d="M580 0h-215v776q0 25 -13.5 41.5t-32 16.5t-32 -16.5t-13.5 -41.5v-776h-217v1364h217v-444q53 102 152 102q70 0 112 -54.5t42 -144.5v-823z" />
<glyph unicode="i" horiz-adv-x="331" d="M270 1116h-209v213h209v-213zM274 0h-217v1006h217v-1006z" />
<glyph unicode="j" horiz-adv-x="329" d="M270 1116h-209v213h209v-213zM274 -39q0 -295 -270 -295h-47v178h20q47 0 63.5 20.5t16.5 67.5v1074h217v-1045z" />
<glyph unicode="k" horiz-adv-x="616" d="M604 0h-209l-82 383l-39 -113v-270h-217v1364h217v-793l111 437h205l-131 -447z" />
<glyph unicode="l" horiz-adv-x="331" d="M274 0h-217v1364h217v-1364z" />
<glyph unicode="m" horiz-adv-x="942" d="M889 0h-215v768q0 25 -13.5 41t-33.5 16q-18 0 -31.5 -16t-13.5 -41v-768h-215v776q0 25 -14.5 41.5t-33 16.5t-32 -16.5t-13.5 -41.5v-776h-217v1006h193l20 -115q35 133 144 133q53 0 91 -39t56 -104q37 143 158 143q78 0 124 -59.5t46 -157.5v-807z" />
<glyph unicode="n" horiz-adv-x="634" d="M580 0h-215v776q0 25 -13.5 41.5t-32 16.5t-32 -16.5t-13.5 -41.5v-776h-217v1006h197l8 -103q20 53 64.5 86t95.5 33q74 0 116 -55.5t42 -143.5v-823z" />
<glyph unicode="o" d="M563 264q0 -127 -72.5 -203.5t-183 -76.5t-183.5 76.5t-73 203.5v477q0 127 73 205t183.5 78t183 -78t72.5 -205v-477zM352 223v559q0 25 -13 41.5t-32 16.5q-20 0 -33.5 -16.5t-13.5 -41.5v-559q0 -25 13.5 -41t33.5 -16q18 0 31.5 16t13.5 41z" />
<glyph unicode="p" horiz-adv-x="624" d="M575 197q0 -88 -48 -151.5t-117 -63.5q-74 0 -138 75v-385h-215v1334h179l10 -78q51 94 153 94q84 0 130 -62.5t46 -160.5v-602zM362 229v547q0 25 -12 41.5t-31 16.5q-20 0 -33.5 -16.5t-13.5 -41.5v-547q0 -25 13.5 -41t33.5 -16q18 0 30.5 16t12.5 41z" />
<glyph unicode="q" horiz-adv-x="624" d="M567 -328h-215v408q-53 -98 -141 -98q-68 0 -114 63.5t-46 151.5v602q0 98 46 160.5t130 62.5q102 0 154 -94l14 78h172v-1334zM352 229v547q0 25 -12 41.5t-32.5 16.5t-33 -16.5t-12.5 -41.5v-547q0 -25 12.5 -41t33 -16t32.5 16t12 41z" />
<glyph unicode="r" horiz-adv-x="477" d="M451 776q-25 3 -46 3q-130 0 -131 -120v-659h-217v1006h189l12 -138q18 84 70 124q38 29 86 30q18 0 37 -4v-242z" />
<glyph unicode="s" horiz-adv-x="567" d="M539 262q0 -121 -62.5 -199.5t-185.5 -78.5q-119 0 -186.5 72.5t-67.5 197.5v63h186v-84q0 -72 56 -71q61 0 61 65q0 35 -13.5 65t-30.5 48t-54 54t-64 67q-137 145 -137 289q0 131 68.5 202.5t179 71.5t177 -78t66.5 -190v-64h-184v80q0 68 -53 68t-53 -62 q0 -33 14 -64.5t30.5 -53t55.5 -68.5q6 -6 32 -30l36 -33q10 -9 31.5 -32.5t31.5 -38t25.5 -39t22.5 -47t12.5 -51t5.5 -59.5z" />
<glyph unicode="t" horiz-adv-x="428" d="M424 813h-107v-528q0 -180 39 -285h-215q-39 100 -39 285v528h-92v186h101v162l206 53v-215h107v-186z" />
<glyph unicode="u" horiz-adv-x="636" d="M578 0h-189l-8 102q-23 -55 -68 -86.5t-96 -31.5q-74 0 -117 55t-43 143v824h215v-777q0 -25 13.5 -41t33.5 -16q18 0 32 16.5t14 40.5v777h213v-1006z" />
<glyph unicode="v" horiz-adv-x="565" d="M555 1006l-182 -1006h-178l-183 1006h211l51 -437l17 -172l16 172l51 437h197z" />
<glyph unicode="w" horiz-adv-x="849" d="M842 1006l-172 -1006h-172l-54 377l-18 194l-18 -194l-58 -377h-170l-170 1006h213l41 -431l19 -204l16 204l49 431h172l47 -431l19 -204l16 204l47 431h193z" />
<glyph unicode="x" horiz-adv-x="598" d="M582 0h-217l-68 311l-70 -311h-215l156 494l-156 512h217l70 -318l68 318h215l-156 -476z" />
<glyph unicode="y" horiz-adv-x="563" d="M557 1006l-184 -1043q-31 -164 -85.5 -230.5t-193.5 -66.5h-43v178h33q41 0 59.5 18.5t28.5 71.5l14 115l-172 957h209l53 -437l17 -172l14 172l51 437h199z" />
<glyph unicode="z" horiz-adv-x="520" d="M492 920l-228 -707h217v-213h-456v86l231 717h-213v203h449v-86z" />
<glyph unicode="{" horiz-adv-x="552" d="M479 -272h-73q-133 0 -205 78.5t-72 197.5q0 88 37 186.5t73.5 175t36.5 113.5q0 49 -25.5 69.5t-90.5 20.5h-66v109h66q66 0 91 20.5t25 67.5q0 37 -36.5 113.5t-73.5 175t-37 186.5q0 121 71.5 200t205.5 79h73v-129h-39q-115 0 -114 -154q0 -82 51 -220t51 -188 q0 -80 -37 -126t-131 -68q92 -23 130 -69t38 -126q0 -51 -51 -200.5t-51 -229.5q0 -156 114 -155h39v-127z" />
<glyph unicode="|" horiz-adv-x="245" d="M186 -131h-127v1624h127v-1624z" />
<glyph unicode="}" horiz-adv-x="552" d="M459 569h-66q-66 0 -91.5 -20.5t-25.5 -69.5q0 -37 37 -113.5t74 -175t37 -186.5q0 -119 -71.5 -197.5t-205.5 -78.5h-73v127h39q115 0 114 155q0 80 -51 229.5t-51 200.5q0 80 38 126t130 69q-94 23 -131 69t-37 125q0 49 51 187.5t51 220.5q0 154 -114 154h-39v129h73 q133 0 205 -79t72 -200q0 -88 -37 -186.5t-74 -175t-37 -113.5q0 -47 26 -67.5t91 -20.5h66v-109z" />
<glyph unicode="~" horiz-adv-x="497" d="M477 721q0 -166 -135 -166q-43 0 -102.5 43t-77.5 43q-39 0 -39 -43v-37h-80q-20 39 -20 80q0 78 33.5 122t99.5 44q45 0 104 -43t78 -43q39 0 39 43v39h80q20 -39 20 -82z" />
<glyph unicode="&#xa1;" horiz-adv-x="342" d="M262 770h-182v236h182v-236zM281 -358h-218v591l74 410h70l74 -410v-591z" />
<glyph unicode="&#xa2;" horiz-adv-x="622" d="M248 1192v172h145v-174q78 -23 122 -94.5t44 -175.5v-115h-176v147q0 66 -53.5 66t-53.5 -66v-540q0 -66 53.5 -66t53.5 66v145h176v-115q0 -104 -44 -174.5t-122 -93.5v-174h-145v172q-82 25 -132 96.5t-50 173.5v478q0 102 50 174.5t132 97.5z" />
<glyph unicode="&#xa3;" horiz-adv-x="856" d="M817 250q0 -123 -61.5 -200t-180.5 -77q-70 0 -134 28t-101 71q-59 -98 -170 -99q-76 0 -124 48.5t-48 117.5q0 76 53 126t146 50q61 0 110 -18q29 59 29 182q0 55 -21 107h-209v170h146q-59 156 -59 284q0 147 83.5 249t229.5 102q133 0 201.5 -92.5t68.5 -211.5v-139 h-211v121q0 74 -59.5 74t-59.5 -74q0 -127 64 -313h219v-170h-188q4 -37 4 -54q0 -156 -115 -296q63 -45 111 -46q84 0 84 99v119h192v-158zM250 160q-29 35 -72 35q-47 0 -47 -45q0 -41 47 -41q54 0 72 51z" />
<glyph unicode="&#xa4;" horiz-adv-x="737" d="M651 520l-121 -121l-163 162l-162 -162l-119 119l162 162l-162 164l121 119l164 -162l161 162l119 -117l-164 -162z" />
<glyph unicode="&#xa5;" horiz-adv-x="778" d="M504 565v-116h190v-166h-190v-283h-244v283h-182v166h182v116h-182v166h137l-170 633h246l106 -496l99 496h239l-184 -633h143v-166h-190z" />
<glyph unicode="&#xa7;" horiz-adv-x="768" d="M723 530q0 -182 -127 -288q63 -76 91 -134.5t28 -142.5q0 -131 -81 -221t-241 -90q-158 0 -254 81t-96 220v68h229v-80q0 -41 27 -67t78 -26q102 0 102 101q0 49 -43 97t-104.5 94t-124 98.5t-105.5 128t-43 161.5q0 176 127 277q-61 68 -90.5 127t-29.5 139 q0 137 82.5 227.5t236.5 90.5q147 0 234.5 -87t87.5 -214v-62h-228v76q0 78 -78 78q-86 0 -86 -80q0 -45 42 -93t102.5 -94.5t120 -98.5t101.5 -127t42 -159zM512 471q0 113 -195 236q-55 -39 -55 -123q0 -106 195 -230q55 39 55 117z" />
<glyph unicode="&#xa8;" horiz-adv-x="440" d="M412 1126h-154v207h154v-207zM180 1126h-151v207h151v-207z" />
<glyph unicode="&#xa9;" horiz-adv-x="1253" d="M1212 653q0 -246 -167.5 -419t-417.5 -173t-418 173.5t-168 418.5q0 248 168 420t418 172t417.5 -172t167.5 -420zM1120 653q0 215 -138 361.5t-355 146.5t-355.5 -146.5t-138.5 -361.5q0 -213 138.5 -359.5t355.5 -146.5t355 146.5t138 359.5zM823 539q0 -76 -52 -123 t-138 -47t-141.5 49t-55.5 125v223q0 76 55.5 124t141.5 48t138 -47t52 -123v-37h-88v37q0 39 -26.5 64.5t-73.5 25.5t-71.5 -26.5t-24.5 -67.5v-221q0 -39 24.5 -66.5t71.5 -27.5t73.5 25.5t26.5 66.5v37h88v-39z" />
<glyph unicode="&#xaa;" horiz-adv-x="557" d="M535 635h-54q-96 0 -135 86q-43 -86 -145 -86q-68 0 -112 48t-44 134v33q0 92 61.5 147.5t198.5 100.5v112q0 39 -34.5 39t-34.5 -39v-71h-164v53q0 90 53 143.5t158 53.5q96 0 149 -56.5t53 -148.5v-391q0 -35 50 -35v-123zM305 807v180q-82 -33 -82 -106v-68 q0 -49 43 -49q39 0 39 43z" />
<glyph unicode="&#xab;" horiz-adv-x="770" d="M367 0h-84q-47 256 -236 332v129q188 76 236 332h84q0 -285 -113 -398q113 -110 113 -395zM717 0h-86q-47 256 -236 332v129q188 76 236 332h86q0 -285 -113 -398q113 -110 113 -395z" />
<glyph unicode="&#xad;" horiz-adv-x="430" d="M397 541h-364v172h364v-172z" />
<glyph unicode="&#xae;" horiz-adv-x="1253" d="M1212 653q0 -246 -167.5 -419t-417.5 -173t-418 173.5t-168 418.5q0 248 168 420t418 172t417.5 -172t167.5 -420zM1120 653q0 215 -138 361.5t-355 146.5t-355.5 -146.5t-138.5 -361.5q0 -213 138.5 -359.5t355.5 -146.5t355 146.5t138 359.5zM854 381h-27 q-57 0 -79.5 19.5t-22.5 70.5v68q0 78 -72 77h-100v-229h-100v539h213q158 0 157 -146v-14q0 -98 -90 -115q45 -6 68.5 -37.5t23.5 -74.5v-60q0 -25 29 -24v-74zM721 760v22q0 66 -64 66h-104v-164h94q74 0 74 76z" />
<glyph unicode="&#xaf;" horiz-adv-x="442" d="M420 1169h-395v134h395v-134z" />
<glyph unicode="&#xb0;" horiz-adv-x="483" d="M459 1176q0 -86 -61.5 -149.5t-156 -63.5t-155.5 63.5t-61 149.5q0 88 61 151.5t155.5 63.5t156 -63.5t61.5 -151.5zM348 1176q0 53 -28.5 84.5t-77.5 31.5t-78 -31.5t-29 -84.5q0 -51 29 -84t78 -33t77.5 33t28.5 84z" />
<glyph unicode="&#xb1;" horiz-adv-x="1087" d="M1038 0h-989v1030h989v-1030zM934 100v830h-780v-830h780z" />
<glyph unicode="&#xb2;" horiz-adv-x="681" d="M639 1063q0 -135 -43 -244.5t-156 -261.5q-78 -131 -105.5 -200.5t-27.5 -127.5h324v-229h-596v59q0 147 47 274.5t184 348.5q84 131 116 215t32 180q0 82 -70 82t-70 -82v-157h-219v178q0 119 75 206t208 87q156 0 228.5 -90.5t72.5 -237.5z" />
<glyph unicode="&#xb3;" horiz-adv-x="681" d="M635 272q0 -133 -86 -216t-225 -83q-131 0 -206 87t-75 206v148h221v-129q0 -76 65.5 -76t65.5 67v261q0 53 -49 53h-90v194h90q49 0 49 52v251q0 68 -65.5 68t-65.5 -76v-131h-221v150q0 119 75 206t206 87q139 0 225 -83t86 -216v-199q0 -76 -36 -129t-99 -72 q135 -51 135 -200v-220z" />
<glyph unicode="&#xb4;" horiz-adv-x="321" d="M326 1389l-148 -281h-110l67 281h191z" />
<glyph unicode="&#xb6;" horiz-adv-x="985" d="M909 -330h-131v1499h-129v-1499h-131v721h-72q-168 0 -278.5 130t-110.5 339v33q0 211 111 341t278 130h463v-1694zM518 561v608h-35q-51 0 -79.5 -54t-28.5 -132v-260q0 -74 27.5 -118t80.5 -44h35z" />
<glyph unicode="&#xb7;" horiz-adv-x="288" d="M242 549h-195v264h195v-264z" />
<glyph unicode="&#xb8;" horiz-adv-x="317" d="M334 -270q0 -63 -46 -108.5t-112 -45.5q-39 0 -63 18v54h24q61 0 62 59v57q0 57 -62 58q-29 0 -59 -31l-53 43l139 205l55 -43l-88 -127q16 12 59 12q66 0 105 -41.5t39 -109.5z" />
<glyph unicode="&#xb9;" horiz-adv-x="471" d="M356 0h-241v1255q104 0 104 109h137v-1364z" />
<glyph unicode="&#xba;" horiz-adv-x="516" d="M477 850q0 -98 -61.5 -156.5t-157.5 -58.5q-94 0 -156.5 58.5t-62.5 156.5v321q0 98 62.5 158t156.5 60q96 0 157.5 -59.5t61.5 -158.5v-321zM297 817v387q0 45 -39 45t-39 -45v-387q0 -43 39 -43t39 43z" />
<glyph unicode="&#xbb;" horiz-adv-x="768" d="M373 332q-188 -76 -236 -332h-86q0 285 113 395q-113 113 -113 398h86q47 -256 236 -332v-129zM721 332q-188 -76 -236 -332h-84q0 285 113 395q-113 113 -113 398h84q47 -256 236 -332v-129z" />
<glyph unicode="&#xbc;" horiz-adv-x="1353" d="M1328 272h-82v-272h-228v272h-329v181l352 911h205v-889h82v-203zM1018 475v344l-123 -344h123zM1122 1452l-1018 -1602l-86 62l1018 1601zM356 0h-241v1255q104 0 104 109h137v-1364z" />
<glyph unicode="&#xbd;" horiz-adv-x="1347" d="M1305 1063q0 -135 -43 -244.5t-156 -261.5q-78 -131 -105.5 -200.5t-27.5 -127.5h324v-229h-596v59q0 147 47 274.5t184 348.5q84 131 116 215t32 180q0 82 -70 82t-70 -82v-157h-219v178q0 119 75 206t208 87q156 0 228.5 -90.5t72.5 -237.5zM1122 1452l-1018 -1602 l-86 62l1018 1601zM356 0h-241v1255q104 0 104 109h137v-1364z" />
<glyph unicode="&#xbe;" horiz-adv-x="1564" d="M1539 272h-82v-272h-228v272h-329v181l352 911h205v-889h82v-203zM1229 475v344l-123 -344h123zM1333 1452l-1018 -1602l-86 62l1018 1601zM635 272q0 -133 -86 -216t-225 -83q-131 0 -206 87t-75 206v148h221v-129q0 -76 65.5 -76t65.5 67v261q0 53 -49 53h-90v194h90 q49 0 49 52v251q0 68 -65.5 68t-65.5 -76v-131h-221v150q0 119 75 206t206 87q139 0 225 -83t86 -216v-199q0 -76 -36 -129t-99 -72q135 -51 135 -200v-220z" />
<glyph unicode="&#xbf;" horiz-adv-x="606" d="M4 -66q0 215 168 426q88 106 88 273h156q0 -119 -23.5 -210t-91.5 -233q-68 -135 -68 -221q0 -119 70 -119t70 87v141h211v-164q0 -129 -74 -214t-209 -85q-152 0 -224.5 88t-72.5 231zM248 1006h182v-236h-182v236z" />
<glyph unicode="&#xc0;" horiz-adv-x="702" d="M698 0h-264l-18 219h-156l-22 -219h-238l199 1364h303zM393 432l-45 531l-59 -531h104zM401 1436h-110l-148 280h191z" />
<glyph unicode="&#xc1;" horiz-adv-x="702" d="M698 0h-264l-18 219h-156l-22 -219h-238l199 1364h303zM393 432l-45 531l-59 -531h104zM549 1716l-148 -280h-110l67 280h191z" />
<glyph unicode="&#xc2;" horiz-adv-x="702" d="M698 0h-264l-18 219h-156l-22 -219h-238l199 1364h303zM393 432l-45 531l-59 -531h104zM588 1454q-43 -16 -80 -16q-125 0 -154 153q-29 -154 -153 -153q-31 0 -70 16v59q45 0 89 52.5t65 150.5h147q23 -98 67 -150.5t89 -52.5v-59z" />
<glyph unicode="&#xc3;" horiz-adv-x="702" d="M698 0h-264l-18 219h-156l-22 -219h-238l199 1364h303zM393 432l-45 531l-59 -531h104zM580 1620q0 -78 -35 -121t-101 -43q-43 0 -102 43t-78 43q-39 0 -39 -43v-37h-80q-20 39 -20 80q0 164 133 164q45 0 104.5 -42t77.5 -42q39 0 39 43v37h80q21 -39 21 -82z" />
<glyph unicode="&#xc4;" horiz-adv-x="702" d="M698 0h-264l-18 219h-156l-22 -219h-238l199 1364h303zM393 432l-45 531l-59 -531h104zM545 1454h-154v207h154v-207zM313 1454h-151v207h151v-207z" />
<glyph unicode="&#xc5;" horiz-adv-x="702" d="M393 432l-45 531l-59 -531h104zM418 1452q0 86 -70 86q-68 0 -67.5 -86t67.5 -86q33 0 51.5 23.5t18.5 62.5zM236 1364q-27 43 -27 88q0 61 40 106.5t99.5 45.5t100 -45.5t40.5 -106.5q0 -45 -26 -88h39l196 -1364h-264l-18 219h-156l-22 -219h-238l199 1364h37z" />
<glyph unicode="&#xc6;" horiz-adv-x="1032" d="M997 0h-557v219h-151l-39 -219h-250l309 1364h688v-231h-292v-326h190v-213h-190v-354h292v-240zM440 432v537l-104 -537h104z" />
<glyph unicode="&#xc7;" horiz-adv-x="729" d="M315 -20q-119 23 -193.5 109.5t-74.5 211.5v762q0 143 98.5 235.5t243.5 92.5q139 0 221 -87t82 -229v-207h-229v211q0 72 -74 72t-74 -72v-794q0 -72 74 -72t74 72v213h229v-209q0 -139 -80 -226.5t-219 -89.5l-16 -26l-37 -51l-18 -27q16 12 61 12q66 0 103.5 -42 t37.5 -109q0 -63 -46 -108.5t-111 -45.5q-33 0 -64 18v54h27q61 0 61 59v57q0 57 -61 58q-29 0 -60 -31l-55 43z" />
<glyph unicode="&#xc8;" horiz-adv-x="649" d="M614 0h-555v1364h555v-231h-292v-326h192v-213h-192v-354h292v-240zM385 1436h-111l-147 280h190z" />
<glyph unicode="&#xc9;" horiz-adv-x="649" d="M614 0h-555v1364h555v-231h-292v-326h192v-213h-192v-354h292v-240zM518 1716l-147 -280h-111l68 280h190z" />
<glyph unicode="&#xca;" horiz-adv-x="649" d="M614 0h-555v1364h555v-231h-292v-326h192v-213h-192v-354h292v-240zM563 1454q-43 -16 -80 -16q-125 0 -153 153q-29 -154 -154 -153q-31 0 -70 16v59q45 0 89.5 52.5t64.5 150.5h148q23 -98 66.5 -150.5t88.5 -52.5v-59z" />
<glyph unicode="&#xcb;" horiz-adv-x="649" d="M614 0h-555v1364h555v-231h-292v-326h192v-213h-192v-354h292v-240zM528 1454h-153v207h153v-207zM297 1454h-152v207h152v-207z" />
<glyph unicode="&#xcc;" horiz-adv-x="382" d="M324 0h-265v1364h265v-1364zM250 1436h-111l-147 280h190z" />
<glyph unicode="&#xcd;" horiz-adv-x="382" d="M324 0h-265v1364h265v-1364zM389 1716l-147 -280h-111l68 280h190z" />
<glyph unicode="&#xce;" horiz-adv-x="382" d="M324 0h-265v1364h265v-1364zM428 1454q-43 -16 -80 -16q-125 0 -153 153q-29 -154 -154 -153q-31 0 -70 16v59q45 0 89 52.5t65 150.5h147q23 -98 67 -150.5t89 -52.5v-59z" />
<glyph unicode="&#xcf;" horiz-adv-x="382" d="M324 0h-265v1364h265v-1364zM383 1454h-154v207h154v-207zM152 1454h-152v207h152v-207z" />
<glyph unicode="&#xd0;" horiz-adv-x="782" d="M344 766h64v-168h-64v-371h53q74 0 74 86v736q0 88 -74 88h-53v-371zM80 598h-94v168h94v598h340q137 0 225 -84t88 -233v-746q0 -147 -87 -224t-226 -77h-340v598z" />
<glyph unicode="&#xd1;" horiz-adv-x="798" d="M741 0h-217l-174 559l-61 191v-750h-232v1364h242l158 -559l55 -193v752h229v-1364zM629 1620q0 -78 -35 -121t-100 -43q-43 0 -102.5 43t-78.5 43q-39 0 -39 -43v-37h-79q-20 39 -21 80q0 164 133 164q45 0 104.5 -42t77.5 -42q39 0 39 43v37h80q21 -39 21 -82z" />
<glyph unicode="&#xd2;" horiz-adv-x="759" d="M711 289q0 -137 -95.5 -226.5t-234.5 -89.5q-141 0 -236.5 89.5t-95.5 226.5v786q0 137 95.5 225.5t236.5 88.5t235.5 -88.5t94.5 -225.5v-786zM442 272v820q0 27 -17 43t-44 16t-45.5 -16.5t-18.5 -42.5v-820q0 -27 18.5 -43t45.5 -16t44 16t17 43zM438 1436h-110 l-148 280h191z" />
<glyph unicode="&#xd3;" horiz-adv-x="759" d="M711 289q0 -137 -95.5 -226.5t-234.5 -89.5q-141 0 -236.5 89.5t-95.5 226.5v786q0 137 95.5 225.5t236.5 88.5t235.5 -88.5t94.5 -225.5v-786zM442 272v820q0 27 -17 43t-44 16t-45.5 -16.5t-18.5 -42.5v-820q0 -27 18.5 -43t45.5 -16t44 16t17 43zM578 1716l-148 -280 h-111l68 280h191z" />
<glyph unicode="&#xd4;" horiz-adv-x="759" d="M711 289q0 -137 -95.5 -226.5t-234.5 -89.5q-141 0 -236.5 89.5t-95.5 226.5v786q0 137 95.5 225.5t236.5 88.5t235.5 -88.5t94.5 -225.5v-786zM442 272v820q0 27 -17 43t-44 16t-45.5 -16.5t-18.5 -42.5v-820q0 -27 18.5 -43t45.5 -16t44 16t17 43zM612 1454 q-43 -16 -80 -16q-125 0 -153 153q-29 -154 -154 -153q-31 0 -69 16v59q45 0 89 52.5t64 150.5h148q23 -98 66.5 -150.5t88.5 -52.5v-59z" />
<glyph unicode="&#xd5;" horiz-adv-x="759" d="M711 289q0 -137 -95.5 -226.5t-234.5 -89.5q-141 0 -236.5 89.5t-95.5 226.5v786q0 137 95.5 225.5t236.5 88.5t235.5 -88.5t94.5 -225.5v-786zM442 272v820q0 27 -17 43t-44 16t-45.5 -16.5t-18.5 -42.5v-820q0 -27 18.5 -43t45.5 -16t44 16t17 43zM604 1620 q0 -78 -34.5 -121t-100.5 -43q-43 0 -102.5 43t-77.5 43q-39 0 -39 -43v-37h-80q-20 39 -20 80q0 164 133 164q45 0 104 -42t78 -42q39 0 39 43v37h80q20 -39 20 -82z" />
<glyph unicode="&#xd6;" horiz-adv-x="759" d="M711 289q0 -137 -95.5 -226.5t-234.5 -89.5q-141 0 -236.5 89.5t-95.5 226.5v786q0 137 95.5 225.5t236.5 88.5t235.5 -88.5t94.5 -225.5v-786zM442 272v820q0 27 -17 43t-44 16t-45.5 -16.5t-18.5 -42.5v-820q0 -27 18.5 -43t45.5 -16t44 16t17 43zM573 1454h-153v207 h153v-207zM342 1454h-152v207h152v-207z" />
<glyph unicode="&#xd7;" horiz-adv-x="737" d="M651 520l-121 -121l-163 162l-162 -162l-119 119l162 162l-162 164l121 119l164 -162l161 162l119 -117l-164 -162z" />
<glyph unicode="&#xd8;" horiz-adv-x="759" d="M442 674l-125 -283v-119q0 -27 17.5 -43t44.5 -16t45 16.5t18 42.5v402zM317 690l125 283v119q0 27 -18 43t-45 16t-44.5 -16.5t-17.5 -42.5v-402zM80 158q-31 59 -31 131v786q0 137 94.5 225.5t235.5 88.5q129 0 221 -74l55 110l101 -51l-76 -166q31 -66 31 -133v-786 q0 -137 -95.5 -226.5t-236.5 -89.5q-131 0 -219 76l-58 -110l-98 51z" />
<glyph unicode="&#xd9;" horiz-adv-x="753" d="M698 279q0 -131 -89 -218.5t-228 -87.5q-137 0 -230.5 88.5t-93.5 217.5v1085h265v-1092q0 -27 17 -43t42 -16q29 0 46 16.5t17 42.5v1092h254v-1085zM436 1436h-110l-148 280h191z" />
<glyph unicode="&#xda;" horiz-adv-x="753" d="M698 279q0 -131 -89 -218.5t-228 -87.5q-137 0 -230.5 88.5t-93.5 217.5v1085h265v-1092q0 -27 17 -43t42 -16q29 0 46 16.5t17 42.5v1092h254v-1085zM584 1716l-148 -280h-110l67 280h191z" />
<glyph unicode="&#xdb;" horiz-adv-x="753" d="M698 279q0 -131 -89 -218.5t-228 -87.5q-137 0 -230.5 88.5t-93.5 217.5v1085h265v-1092q0 -27 17 -43t42 -16q29 0 46 16.5t17 42.5v1092h254v-1085zM614 1454q-43 -16 -79 -16q-125 0 -154 153q-29 -154 -154 -153q-31 0 -69 16v59q45 0 89 52.5t64 150.5h148 q23 -98 66.5 -150.5t88.5 -52.5v-59z" />
<glyph unicode="&#xdc;" horiz-adv-x="753" d="M698 279q0 -131 -89 -218.5t-228 -87.5q-137 0 -230.5 88.5t-93.5 217.5v1085h265v-1092q0 -27 17 -43t42 -16q29 0 46 16.5t17 42.5v1092h254v-1085zM573 1454h-153v207h153v-207zM342 1454h-152v207h152v-207z" />
<glyph unicode="&#xdd;" horiz-adv-x="724" d="M731 1364l-244 -809v-555h-262v555l-227 809h264l111 -510l100 510h258zM565 1716l-147 -280h-111l68 280h190z" />
<glyph unicode="&#xde;" horiz-adv-x="718" d="M684 559q0 -135 -73.5 -203.5t-184.5 -68.5h-102v-287h-265v1364h265v-227h102q111 0 184.5 -69t73.5 -204v-305zM436 551v305q0 59 -47 59h-65v-426h65q47 1 47 62z" />
<glyph unicode="&#xdf;" horiz-adv-x="657" d="M604 233q0 -119 -57.5 -184t-153.5 -65q-41 0 -67 22v125q63 0 63 84v330q0 49 -12 71.5t-47 22.5v184q80 0 80 95v169q0 94 -68 94.5t-68 -94.5v-1087h-217v1047q0 147 73 232t202 85t197.5 -85t68.5 -232v-117q0 -152 -98 -211q104 -55 104 -213v-273z" />
<glyph unicode="&#xe0;" horiz-adv-x="595" d="M573 -16h-43q-109 0 -153 110q-49 -111 -168 -110q-80 0 -131 65.5t-51 177.5v58q0 125 71.5 201.5t227.5 142.5v159q0 51 -41 52q-16 0 -27.5 -14.5t-11.5 -37.5v-104h-191v78q0 119 62.5 190.5t181.5 71.5q113 0 174.5 -75t61.5 -195v-559q0 -45 38 -52v-159zM326 213 v260q-94 -55 -95 -149v-105q0 -63 50 -63q45 0 45 57zM362 1108h-110l-148 281h191z" />
<glyph unicode="&#xe1;" horiz-adv-x="595" d="M573 -16h-43q-109 0 -153 110q-49 -111 -168 -110q-80 0 -131 65.5t-51 177.5v58q0 125 71.5 201.5t227.5 142.5v159q0 51 -41 52q-16 0 -27.5 -14.5t-11.5 -37.5v-104h-191v78q0 119 62.5 190.5t181.5 71.5q113 0 174.5 -75t61.5 -195v-559q0 -45 38 -52v-159zM326 213 v260q-94 -55 -95 -149v-105q0 -63 50 -63q45 0 45 57zM502 1389l-148 -281h-110l67 281h191z" />
<glyph unicode="&#xe2;" horiz-adv-x="595" d="M573 -16h-43q-109 0 -153 110q-49 -111 -168 -110q-80 0 -131 65.5t-51 177.5v58q0 125 71.5 201.5t227.5 142.5v159q0 51 -41 52q-16 0 -27.5 -14.5t-11.5 -37.5v-104h-191v78q0 119 62.5 190.5t181.5 71.5q113 0 174.5 -75t61.5 -195v-559q0 -45 38 -52v-159zM326 213 v260q-94 -55 -95 -149v-105q0 -63 50 -63q45 0 45 57zM530 1126q-43 -16 -79 -16q-125 0 -154 154q-29 -154 -154 -154q-31 0 -69 16v60q45 0 89 52t64 151h148q23 -98 66.5 -150.5t88.5 -52.5v-60z" />
<glyph unicode="&#xe3;" horiz-adv-x="595" d="M573 -16h-43q-109 0 -153 110q-49 -111 -168 -110q-80 0 -131 65.5t-51 177.5v58q0 125 71.5 201.5t227.5 142.5v159q0 51 -41 52q-16 0 -27.5 -14.5t-11.5 -37.5v-104h-191v78q0 119 62.5 190.5t181.5 71.5q113 0 174.5 -75t61.5 -195v-559q0 -45 38 -52v-159zM326 213 v260q-94 -55 -95 -149v-105q0 -63 50 -63q45 0 45 57zM522 1292q0 -78 -34.5 -121t-100.5 -43q-43 0 -102.5 43t-77.5 43q-39 0 -39 -43v-36h-80q-20 39 -20 79q0 164 133 164q45 0 104.5 -42t77.5 -42q39 0 39 43v37h80q20 -39 20 -82z" />
<glyph unicode="&#xe4;" horiz-adv-x="595" d="M573 -16h-43q-109 0 -153 110q-49 -111 -168 -110q-80 0 -131 65.5t-51 177.5v58q0 125 71.5 201.5t227.5 142.5v159q0 51 -41 52q-16 0 -27.5 -14.5t-11.5 -37.5v-104h-191v78q0 119 62.5 190.5t181.5 71.5q113 0 174.5 -75t61.5 -195v-559q0 -45 38 -52v-159zM326 213 v260q-94 -55 -95 -149v-105q0 -63 50 -63q45 0 45 57zM492 1126h-154v207h154v-207zM260 1126h-151v207h151v-207z" />
<glyph unicode="&#xe5;" horiz-adv-x="595" d="M573 -16h-43q-109 0 -153 110q-49 -111 -168 -110q-80 0 -131 65.5t-51 177.5v58q0 125 71.5 201.5t227.5 142.5v159q0 51 -41 52q-16 0 -27.5 -14.5t-11.5 -37.5v-104h-191v78q0 119 62.5 190.5t181.5 71.5q113 0 174.5 -75t61.5 -195v-559q0 -45 38 -52v-159zM326 213 v260q-94 -55 -95 -149v-105q0 -63 50 -63q45 0 45 57zM434 1265.5q0 -61.5 -41 -106.5t-100.5 -45t-99 45t-39.5 106.5t39.5 105.5t99 44t100.5 -44t41 -105.5zM362 1266q0 86 -69 86q-68 0 -68 -86t68 -86q69 0 69 86z" />
<glyph unicode="&#xe6;" horiz-adv-x="892" d="M850 258q0 -123 -62.5 -198.5t-171.5 -75.5q-117 0 -180 84q-61 -84 -203 -84q-98 0 -152 66.5t-54 176.5v58q0 125 71.5 201.5t227.5 142.5v153q0 51 -41 51.5t-41 -51.5v-98h-193v78q0 117 62.5 189.5t165.5 72.5q96 0 159 -86q29 39 78 62.5t100 23.5q106 0 170 -77 t64 -199v-277h-295v-238q0 -61 51 -61q49 0 49 61v140h195v-115zM649 582v192q0 25 -13 42.5t-33.5 17.5t-34 -17.5t-13.5 -42.5v-192h94zM326 219v254q-94 -55 -95 -149v-99q0 -66 50 -65q45 0 45 59z" />
<glyph unicode="&#xe7;" horiz-adv-x="579" d="M248 -10q-88 18 -142.5 91t-54.5 183v477q0 127 73 205t183 78q109 0 173.5 -77t64.5 -206v-114h-178v145q0 68 -52 68q-55 0 -55 -68v-539q0 -68 55 -67q51 0 52 67v146h178v-115q0 -123 -58.5 -196.5t-158.5 -83.5l-80 -115q16 12 61 12q66 0 104 -42t38 -109 q0 -63 -46.5 -108.5t-111.5 -45.5q-33 0 -64 18v54h27q61 0 61 59v57q0 57 -61 58q-29 0 -59 -31l-56 43z" />
<glyph unicode="&#xe8;" horiz-adv-x="602" d="M557 258q0 -121 -70.5 -197.5t-179.5 -76.5q-111 0 -183.5 76.5t-72.5 197.5v490q0 121 73 198.5t183 77.5q109 0 179.5 -78t70.5 -198v-277h-295v-244q0 -61 49 -61q51 0 51 61v146h195v-115zM356 582v198q0 25 -13 42.5t-33.5 17.5t-34 -17.5t-13.5 -42.5v-198h94z M369 1108h-111l-147 281h190z" />
<glyph unicode="&#xe9;" horiz-adv-x="602" d="M557 258q0 -121 -70.5 -197.5t-179.5 -76.5q-111 0 -183.5 76.5t-72.5 197.5v490q0 121 73 198.5t183 77.5q109 0 179.5 -78t70.5 -198v-277h-295v-244q0 -61 49 -61q51 0 51 61v146h195v-115zM356 582v198q0 25 -13 42.5t-33.5 17.5t-34 -17.5t-13.5 -42.5v-198h94z M508 1389l-148 -281h-110l67 281h191z" />
<glyph unicode="&#xea;" horiz-adv-x="602" d="M557 258q0 -121 -70.5 -197.5t-179.5 -76.5q-111 0 -183.5 76.5t-72.5 197.5v490q0 121 73 198.5t183 77.5q109 0 179.5 -78t70.5 -198v-277h-295v-244q0 -61 49 -61q51 0 51 61v146h195v-115zM356 582v198q0 25 -13 42.5t-33.5 17.5t-34 -17.5t-13.5 -42.5v-198h94z M539 1126q-43 -16 -80 -16q-125 0 -154 154q-29 -154 -153 -154q-31 0 -70 16v60q45 0 89 52t65 151h147q23 -98 67 -150.5t89 -52.5v-60z" />
<glyph unicode="&#xeb;" horiz-adv-x="602" d="M557 258q0 -121 -70.5 -197.5t-179.5 -76.5q-111 0 -183.5 76.5t-72.5 197.5v490q0 121 73 198.5t183 77.5q109 0 179.5 -78t70.5 -198v-277h-295v-244q0 -61 49 -61q51 0 51 61v146h195v-115zM356 582v198q0 25 -13 42.5t-33.5 17.5t-34 -17.5t-13.5 -42.5v-198h94z M498 1126h-154v207h154v-207zM266 1126h-151v207h151v-207z" />
<glyph unicode="&#xec;" horiz-adv-x="331" d="M274 0h-217v1006h217v-1006zM221 1108h-110l-148 281h191z" />
<glyph unicode="&#xed;" horiz-adv-x="331" d="M274 0h-217v1006h217v-1006zM369 1389l-148 -281h-110l67 281h191z" />
<glyph unicode="&#xee;" horiz-adv-x="331" d="M274 0h-217v1006h217v-1006zM399 1126q-43 -16 -80 -16q-125 0 -153 154q-29 -154 -154 -154q-31 0 -69 16v60q45 0 89 52t64 151h148q23 -98 66.5 -150.5t88.5 -52.5v-60z" />
<glyph unicode="&#xef;" horiz-adv-x="331" d="M274 0h-217v1006h217v-1006zM356 1126h-153v207h153v-207zM125 1126h-152v207h152v-207z" />
<glyph unicode="&#xf0;" horiz-adv-x="618" d="M352 223v553q0 25 -12 41.5t-32.5 16.5t-33 -16.5t-12.5 -41.5v-553q0 -25 12.5 -41t32.5 -16q18 0 31.5 16t13.5 41zM319 1098l-77 -58l-43 103l63 49q-53 59 -135 59v113h35q137 0 237 -74l88 64l43 -103l-55 -41q94 -129 94 -331v-615q0 -127 -75.5 -203.5t-186 -76.5 t-183.5 76.5t-73 203.5v522q0 86 48 150.5t116 64.5q72 0 137 -77q0 100 -33 174z" />
<glyph unicode="&#xf1;" horiz-adv-x="634" d="M580 0h-215v776q0 25 -13.5 41.5t-32 16.5t-32 -16.5t-13.5 -41.5v-776h-217v1006h197l8 -103q20 53 64.5 86t95.5 33q74 0 116 -55.5t42 -143.5v-823zM539 1292q0 -78 -35 -121t-101 -43q-43 0 -102 43t-78 43q-39 0 -39 -43v-36h-80q-20 39 -20 79q0 164 133 164 q45 0 104.5 -42t77.5 -42q39 0 39 43v37h80q21 -39 21 -82z" />
<glyph unicode="&#xf2;" d="M563 264q0 -127 -72.5 -203.5t-183 -76.5t-183.5 76.5t-73 203.5v477q0 127 73 205t183.5 78t183 -78t72.5 -205v-477zM352 223v559q0 25 -13 41.5t-32 16.5q-20 0 -33.5 -16.5t-13.5 -41.5v-559q0 -25 13.5 -41t33.5 -16q18 0 31.5 16t13.5 41zM367 1108h-111l-147 281 h190z" />
<glyph unicode="&#xf3;" d="M563 264q0 -127 -72.5 -203.5t-183 -76.5t-183.5 76.5t-73 203.5v477q0 127 73 205t183.5 78t183 -78t72.5 -205v-477zM352 223v559q0 25 -13 41.5t-32 16.5q-20 0 -33.5 -16.5t-13.5 -41.5v-559q0 -25 13.5 -41t33.5 -16q18 0 31.5 16t13.5 41zM514 1389l-147 -281h-111 l68 281h190z" />
<glyph unicode="&#xf4;" d="M563 264q0 -127 -72.5 -203.5t-183 -76.5t-183.5 76.5t-73 203.5v477q0 127 73 205t183.5 78t183 -78t72.5 -205v-477zM352 223v559q0 25 -13 41.5t-32 16.5q-20 0 -33.5 -16.5t-13.5 -41.5v-559q0 -25 13.5 -41t33.5 -16q18 0 31.5 16t13.5 41zM543 1126 q-43 -16 -80 -16q-125 0 -154 154q-29 -154 -153 -154q-31 0 -70 16v60q45 0 89 52t65 151h147q23 -98 67 -150.5t89 -52.5v-60z" />
<glyph unicode="&#xf5;" d="M563 264q0 -127 -72.5 -203.5t-183 -76.5t-183.5 76.5t-73 203.5v477q0 127 73 205t183.5 78t183 -78t72.5 -205v-477zM352 223v559q0 25 -13 41.5t-32 16.5q-20 0 -33.5 -16.5t-13.5 -41.5v-559q0 -25 13.5 -41t33.5 -16q18 0 31.5 16t13.5 41zM535 1292q0 -78 -35 -121 t-101 -43q-43 0 -102 43t-78 43q-39 0 -39 -43v-36h-80q-20 39 -20 79q0 164 133 164q45 0 104.5 -42t77.5 -42q39 0 39 43v37h80q21 -39 21 -82z" />
<glyph unicode="&#xf6;" d="M563 264q0 -127 -72.5 -203.5t-183 -76.5t-183.5 76.5t-73 203.5v477q0 127 73 205t183.5 78t183 -78t72.5 -205v-477zM352 223v559q0 25 -13 41.5t-32 16.5q-20 0 -33.5 -16.5t-13.5 -41.5v-559q0 -25 13.5 -41t33.5 -16q18 0 31.5 16t13.5 41zM498 1126h-154v207h154 v-207zM266 1126h-151v207h151v-207z" />
<glyph unicode="&#xf8;" d="M352 492l-92 -164v-105q0 -25 13.5 -41t33.5 -16q18 0 31.5 16.5t13.5 40.5v269zM260 512l92 164v106q0 25 -13 41.5t-32 16.5q-20 0 -33.5 -16.5t-13.5 -41.5v-270zM74 172q-23 39 -23 96v473q0 127 73 205t183 78q113 0 185 -88l65 117l72 -56l-90 -163q25 -39 24 -99 v-471q0 -127 -72.5 -203.5t-183.5 -76.5q-117 0 -186 86l-64 -115l-71 55z" />
<glyph unicode="&#xf9;" horiz-adv-x="636" d="M578 0h-189l-8 102q-23 -55 -68 -86.5t-96 -31.5q-74 0 -117 55t-43 143v824h215v-777q0 -25 13.5 -41t33.5 -16q18 0 32 16.5t14 40.5v777h213v-1006zM373 1108h-111l-147 281h190z" />
<glyph unicode="&#xfa;" horiz-adv-x="636" d="M578 0h-189l-8 102q-23 -55 -68 -86.5t-96 -31.5q-74 0 -117 55t-43 143v824h215v-777q0 -25 13.5 -41t33.5 -16q18 0 32 16.5t14 40.5v777h213v-1006zM520 1389l-147 -281h-111l68 281h190z" />
<glyph unicode="&#xfb;" horiz-adv-x="636" d="M578 0h-189l-8 102q-23 -55 -68 -86.5t-96 -31.5q-74 0 -117 55t-43 143v824h215v-777q0 -25 13.5 -41t33.5 -16q18 0 32 16.5t14 40.5v777h213v-1006zM551 1126q-43 -16 -80 -16q-125 0 -154 154q-29 -154 -153 -154q-31 0 -70 16v60q45 0 89 52t65 151h147 q23 -98 67 -150.5t89 -52.5v-60z" />
<glyph unicode="&#xfc;" horiz-adv-x="636" d="M578 0h-189l-8 102q-23 -55 -68 -86.5t-96 -31.5q-74 0 -117 55t-43 143v824h215v-777q0 -25 13.5 -41t33.5 -16q18 0 32 16.5t14 40.5v777h213v-1006zM512 1126h-154v207h154v-207zM281 1126h-152v207h152v-207z" />
<glyph unicode="&#xfd;" horiz-adv-x="563" d="M557 1006l-184 -1043q-31 -164 -85.5 -230.5t-193.5 -66.5h-43v178h33q41 0 59.5 18.5t28.5 71.5l14 115l-172 957h209l53 -437l17 -172l14 172l51 437h199zM492 1389l-148 -281h-111l68 281h191z" />
<glyph unicode="&#xfe;" horiz-adv-x="624" d="M575 197q0 -88 -48 -151.5t-117 -63.5q-74 0 -138 75v-385h-215v1692h215v-416q63 74 138 74q70 0 117.5 -62.5t47.5 -150.5v-612zM365 229v547q0 23 -13.5 39t-34.5 16q-18 0 -31.5 -16t-13.5 -39v-547q0 -25 13.5 -41t31.5 -16q20 0 34 16t14 41z" />
<glyph unicode="&#xff;" horiz-adv-x="563" d="M557 1006l-184 -1043q-31 -164 -85.5 -230.5t-193.5 -66.5h-43v178h33q41 0 59.5 18.5t28.5 71.5l14 115l-172 957h209l53 -437l17 -172l14 172l51 437h199zM485 1126h-153v207h153v-207zM254 1126h-152v207h152v-207z" />
<glyph unicode="&#x152;" horiz-adv-x="1034" d="M999 0h-630q-139 0 -226.5 77t-87.5 224v746q0 150 88 233.5t226 83.5h630v-231h-292v-326h192v-213h-192v-354h292v-240zM444 227v910h-55q-72 0 -72 -88v-736q0 -86 72 -86h55z" />
<glyph unicode="&#x153;" horiz-adv-x="925" d="M883 258q0 -123 -62.5 -198.5t-171.5 -75.5q-117 0 -180 84q-61 -84 -180 -84q-109 0 -173.5 75.5t-64.5 204.5v477q0 129 64.5 206t173.5 77q117 0 182 -86q29 39 78 62.5t100 23.5q106 0 170 -77t64 -199v-277h-297v-238q0 -61 51 -61t51 61v140h195v-115zM684 582v192 q0 25 -14.5 42.5t-35 17.5t-34.5 -17.5t-14 -42.5v-192h98zM352 229v547q0 25 -13 41.5t-32 16.5q-20 0 -33.5 -16.5t-13.5 -41.5v-547q0 -25 13.5 -41t33.5 -16q18 0 31.5 16t13.5 41z" />
<glyph unicode="&#x178;" horiz-adv-x="724" d="M731 1364l-244 -809v-555h-262v555l-227 809h264l111 -510l100 510h258zM561 1454h-153v207h153v-207zM330 1454h-152v207h152v-207z" />
<glyph unicode="&#x2c6;" horiz-adv-x="497" d="M477 1126q-43 -16 -80 -16q-125 0 -153 154q-29 -154 -154 -154q-31 0 -70 16v60q45 0 89.5 52t64.5 151h148q23 -98 66.5 -150.5t88.5 -52.5v-60z" />
<glyph unicode="&#x2dc;" horiz-adv-x="497" d="M477 1292q0 -78 -34.5 -121t-100.5 -43q-43 0 -102.5 43t-77.5 43q-39 0 -39 -43v-36h-80q-20 39 -20 79q0 164 133 164q45 0 104 -42t78 -42q39 0 39 43v37h80q20 -39 20 -82z" />
<glyph unicode="&#x2000;" horiz-adv-x="858" />
<glyph unicode="&#x2001;" horiz-adv-x="1716" />
<glyph unicode="&#x2002;" horiz-adv-x="858" />
<glyph unicode="&#x2003;" horiz-adv-x="1716" />
<glyph unicode="&#x2004;" horiz-adv-x="571" />
<glyph unicode="&#x2005;" horiz-adv-x="428" />
<glyph unicode="&#x2006;" horiz-adv-x="284" />
<glyph unicode="&#x2007;" horiz-adv-x="284" />
<glyph unicode="&#x2008;" horiz-adv-x="212" />
<glyph unicode="&#x2009;" horiz-adv-x="342" />
<glyph unicode="&#x200a;" horiz-adv-x="94" />
<glyph unicode="&#x2010;" horiz-adv-x="430" d="M397 541h-364v172h364v-172z" />
<glyph unicode="&#x2011;" horiz-adv-x="430" d="M397 541h-364v172h364v-172z" />
<glyph unicode="&#x2012;" horiz-adv-x="430" d="M397 541h-364v172h364v-172z" />
<glyph unicode="&#x2013;" horiz-adv-x="921" d="M795 541h-666v172h666v-172z" />
<glyph unicode="&#x2014;" horiz-adv-x="1382" d="M1255 541h-1126v172h1126v-172z" />
<glyph unicode="&#x2018;" horiz-adv-x="288" d="M49 1163q0 86 53.5 145.5t141.5 59.5v-59q-92 0 -92 -123h92v-264h-195v241z" />
<glyph unicode="&#x2019;" horiz-adv-x="288" d="M242 1122q0 -88 -53.5 -146t-141.5 -58v57q92 0 92 123h-92v266h195v-242z" />
<glyph unicode="&#x201a;" horiz-adv-x="288" d="M242 25q0 -88 -53.5 -146.5t-141.5 -58.5v57q92 0 92 123h-92v266h195v-241z" />
<glyph unicode="&#x201c;" horiz-adv-x="530" d="M49 1163q0 86 53.5 145.5t141.5 59.5v-59q-92 0 -92 -123h92v-264h-195v241zM291 1163q0 86 53 145.5t141 59.5v-59q-92 0 -92 -123h92v-264h-194v241z" />
<glyph unicode="&#x201d;" horiz-adv-x="530" d="M483 1122q0 -88 -53 -146t-141 -58v57q92 0 92 123h-92v266h194v-242zM242 1122q0 -88 -53.5 -146t-141.5 -58v57q92 0 92 123h-92v266h195v-242z" />
<glyph unicode="&#x201e;" horiz-adv-x="530" d="M483 25q0 -88 -53 -146.5t-141 -58.5v57q92 0 92 123h-92v266h194v-241zM242 25q0 -88 -53.5 -146.5t-141.5 -58.5v57q92 0 92 123h-92v266h195v-241z" />
<glyph unicode="&#x2022;" horiz-adv-x="491" d="M459 682q0 -98 -59.5 -156.5t-151.5 -58.5q-94 0 -153.5 57.5t-59.5 157.5t59.5 157.5t153.5 57.5q92 0 151.5 -58.5t59.5 -156.5z" />
<glyph unicode="&#x2026;" horiz-adv-x="882" d="M242 0h-195v264h195v-264zM539 0h-195v264h195v-264zM836 0h-195v264h195v-264z" />
<glyph unicode="&#x202f;" horiz-adv-x="342" />
<glyph unicode="&#x2039;" horiz-adv-x="419" d="M367 0h-84q-47 256 -236 332v129q188 76 236 332h84q0 -285 -113 -398q113 -110 113 -395z" />
<glyph unicode="&#x203a;" horiz-adv-x="419" d="M375 332q-188 -76 -236 -332h-86q0 285 113 395q-113 113 -113 398h86q47 -256 236 -332v-129z" />
<glyph unicode="&#x2044;" horiz-adv-x="194" d="M651 1452l-1018 -1602l-86 62l1018 1601z" />
<glyph unicode="&#x205f;" horiz-adv-x="428" />
<glyph unicode="&#x2122;" horiz-adv-x="989" d="M920 905h-82v373l-33 -131l-76 -242h-82l-72 242l-32 131v-373h-84v459h127l73 -256l31 -121l31 121l72 256h127v-459zM377 1286h-127v-381h-92v381h-127v78h346v-78z" />
<glyph unicode="&#xe000;" horiz-adv-x="1004" d="M0 1005h1005v-1005h-1005v1005z" />
<glyph unicode="&#xfb01;" horiz-adv-x="784" d="M438 813h-106v-813h-215v813h-90v186h90v72q0 293 268 293h49v-176h-22q-47 0 -65.5 -21.5t-18.5 -68.5v-99h110v-186zM723 1116h-209v213h209v-213zM727 0h-217v1006h217v-1006z" />
<glyph unicode="&#xfb02;" horiz-adv-x="784" d="M438 813h-106v-813h-215v813h-90v186h90v72q0 293 268 293h49v-176h-22q-47 0 -65.5 -21.5t-18.5 -68.5v-99h110v-186zM727 0h-217v1364h217v-1364z" />
<glyph unicode="&#xfb03;" horiz-adv-x="1236" d="M1175 1116h-209v213h209v-213zM1179 0h-217v1006h217v-1006zM891 813h-106v-813h-215v813h-90v186h90v72q0 293 268 293h49v-176h-22q-47 0 -65.5 -21.5t-18.5 -68.5v-99h110v-186zM438 813h-106v-813h-215v813h-90v186h90v72q0 293 268 293h49v-176h-22 q-47 0 -65.5 -21.5t-18.5 -68.5v-99h110v-186z" />
<glyph unicode="&#xfb04;" horiz-adv-x="1236" d="M1179 0h-217v1364h217v-1364zM891 813h-106v-813h-215v813h-90v186h90v72q0 293 268 293h49v-176h-22q-47 0 -65.5 -21.5t-18.5 -68.5v-99h110v-186zM438 813h-106v-813h-215v813h-90v186h90v72q0 293 268 293h49v-176h-22q-47 0 -65.5 -21.5t-18.5 -68.5v-99h110v-186z " />
</font>
</defs>
</svg>
